<svg id="Capa_1" data-name="Capa 1" xmlns="http://www.w3.org/2000/svg" viewBox="0 0 440.69 172.01"><defs><style>.cls-1{fill:#f7eb61;}</style></defs><path class="cls-1" d="M201.27,254.3H144.76A29.93,29.93,0,0,0,148,266.5a26,26,0,0,0,6.9,8.32,23.4,23.4,0,0,0,9.08,4.37,27.58,27.58,0,0,0,10.09.51,26.86,26.86,0,0,0,9.76-3.28,28.24,28.24,0,0,0,8.15-7l4.37,3.2a26.54,26.54,0,0,1-5.55,6.72,45.67,45.67,0,0,1-8.49,6.06A51.64,51.64,0,0,1,172,289.79a38.71,38.71,0,0,1-11.27,1.68,42.4,42.4,0,0,1-15.81-2.94,38.91,38.91,0,0,1-12.86-8.24,38.47,38.47,0,0,1-8.66-12.78,43.63,43.63,0,0,1,0-32.8,38.47,38.47,0,0,1,8.66-12.78,38.91,38.91,0,0,1,12.86-8.24,42.4,42.4,0,0,1,15.81-2.94,42.93,42.93,0,0,1,17.74,3.44,35.37,35.37,0,0,1,12.7,9.42,40.2,40.2,0,0,1,7.57,13.88A55,55,0,0,1,201.27,254.3Zm-56.51-6.39h16.32a21.35,21.35,0,0,0,10-2,12.07,12.07,0,0,0,5.39-5.3,12.43,12.43,0,0,0,1.09-7.15,21.58,21.58,0,0,0-2.69-7.74,13.13,13.13,0,0,0-4.37-4.54,18,18,0,0,0-6-2.52,13.32,13.32,0,0,0-6.3.17,11.47,11.47,0,0,0-5.55,3.36,25,25,0,0,0-5.63,10.6A63.8,63.8,0,0,0,144.76,247.91Z" transform="translate(-29.65 -163.99)"/><path class="cls-1" d="M202.62,223l29.09-12.44h4.88v58c0,1.68.08,3.59.25,5.72a29.74,29.74,0,0,0,1.09,6.05,11.87,11.87,0,0,0,2.61,4.79,6,6,0,0,0,4.63,1.94v4.37H203.46V287.1a5.72,5.72,0,0,0,4.54-1.94,13.51,13.51,0,0,0,2.61-4.79,26.69,26.69,0,0,0,1.17-6.05c.17-2.13.26-4,.26-5.72V244.72a19.58,19.58,0,0,0-.93-6.39,17.19,17.19,0,0,0-2.27-4.54,21.63,21.63,0,0,0-3-3.37c-1.12-1-2.18-2-3.19-3Zm21-21.69a11.72,11.72,0,0,1-8.75-3.62,12.39,12.39,0,0,1,0-17.32,12.28,12.28,0,1,1,8.75,20.94Z" transform="translate(-29.65 -163.99)"/><path class="cls-1" d="M148.58,306.49a27.23,27.23,0,0,1-2.71,10.95,29.32,29.32,0,0,1-7.3,9.49,29.78,29.78,0,0,1-3.78,2.83,38.51,38.51,0,0,1-7.75,3.79,40.16,40.16,0,0,1-7.7,1.92,51.86,51.86,0,0,1-7.21.54H112a28.72,28.72,0,0,1-6.59-1.14,24.62,24.62,0,0,1-9.28-5.09,26.77,26.77,0,0,1-6.63-9.08,30.47,30.47,0,0,1-2.56-13v-4.05l0-41.27V239.14a24.72,24.72,0,0,0-1.7-9.93,13.79,13.79,0,0,0-4.24-5.68,8.41,8.41,0,0,0-5.6-1.69A9.86,9.86,0,0,0,69.86,224a14.61,14.61,0,0,0-4.25,5.59,21,21,0,0,0-1.69,8.91v31c0,1.69.08,3.62.25,5.76a30.2,30.2,0,0,0,1.1,6.11,12.77,12.77,0,0,0,2.55,4.84,5.47,5.47,0,0,0,2.29,1.58,1.27,1.27,0,0,1,.83,1.27c0,.73,0,1.46,0,2.19v0a1.29,1.29,0,0,1-1.29,1.3H31.8a1.3,1.3,0,0,1-1.3-1.3v-1.92a1.28,1.28,0,0,1,1.1-1.27,5.56,5.56,0,0,0,3.48-1.87,13.62,13.62,0,0,0,2.63-4.84,26.57,26.57,0,0,0,1.19-6.11c.17-2.14.25-4.07.25-5.76V198.6a19.14,19.14,0,0,0-.93-6.36,17.36,17.36,0,0,0-2.38-4.58,26.74,26.74,0,0,0-3.05-3.48c-.94-.9-1.86-1.79-2.76-2.68a1.3,1.3,0,0,1-.38-.91v-3a1.29,1.29,0,0,1,.78-1.19L58.75,164.1a1.31,1.31,0,0,1,.52-.11h3.35a1.3,1.3,0,0,1,1.3,1.3v52.44a1.29,1.29,0,0,0,2.2.92,25.88,25.88,0,0,1,6.31-4.7,26.24,26.24,0,0,1,10.3-3.06A29,29,0,0,1,93.28,212a24.35,24.35,0,0,1,9.28,5.09,26.88,26.88,0,0,1,6.64,9.07,30.67,30.67,0,0,1,2.55,13v68.58a24.65,24.65,0,0,0,1.69,9.92,13.81,13.81,0,0,0,4.24,5.68,7.06,7.06,0,0,0,4.56,1.7c9.4-.84,5.72-10.89,4.82-17a10.89,10.89,0,0,1,.76-6.87,11.6,11.6,0,0,1,3.82-4.41,11.39,11.39,0,0,1,3.17-1.5,13.5,13.5,0,0,1,2.26-.45,10.21,10.21,0,0,1,5.6.85,10.66,10.66,0,0,1,4.32,3.82A11.51,11.51,0,0,1,148.58,306.49Z" transform="translate(-29.65 -163.99)"/><path class="cls-1" d="M426.45,254.3H369.94a29.93,29.93,0,0,0,3.28,12.2,26,26,0,0,0,6.9,8.32,23.47,23.47,0,0,0,9.08,4.37,27.58,27.58,0,0,0,10.09.51,26.86,26.86,0,0,0,9.76-3.28,28.24,28.24,0,0,0,8.15-7l4.37,3.2a26.7,26.7,0,0,1-5.54,6.72,46.09,46.09,0,0,1-8.5,6.06,51.64,51.64,0,0,1-10.34,4.37,38.71,38.71,0,0,1-11.27,1.68,42.44,42.44,0,0,1-15.81-2.94,38.14,38.14,0,0,1-21.52-21,43.63,43.63,0,0,1,0-32.8,38.14,38.14,0,0,1,21.52-21,42.44,42.44,0,0,1,15.81-2.94,42.93,42.93,0,0,1,17.74,3.44,35.37,35.37,0,0,1,12.7,9.42,40.2,40.2,0,0,1,7.57,13.88A55,55,0,0,1,426.45,254.3Zm-56.51-6.39h16.32a21.32,21.32,0,0,0,10-2,12.07,12.07,0,0,0,5.39-5.3,12.35,12.35,0,0,0,1.09-7.15,21.58,21.58,0,0,0-2.69-7.74,13.13,13.13,0,0,0-4.37-4.54,18.07,18.07,0,0,0-6-2.52,13.36,13.36,0,0,0-6.31.17,11.47,11.47,0,0,0-5.55,3.36,25,25,0,0,0-5.63,10.6A64.32,64.32,0,0,0,369.94,247.91Z" transform="translate(-29.65 -163.99)"/><path class="cls-1" d="M427.8,223l29.09-12.44h4.88v58c0,1.68.08,3.59.25,5.72a29.07,29.07,0,0,0,1.1,6.05,11.74,11.74,0,0,0,2.6,4.79,6,6,0,0,0,4.63,1.94v4.37H428.64V287.1a5.72,5.72,0,0,0,4.54-1.94,13.51,13.51,0,0,0,2.61-4.79,26.15,26.15,0,0,0,1.17-6.05c.17-2.13.26-4,.26-5.72V244.72a19.58,19.58,0,0,0-.93-6.39,17.19,17.19,0,0,0-2.27-4.54,21.63,21.63,0,0,0-3-3.37c-1.12-1-2.18-2-3.19-3Zm21-21.69a11.72,11.72,0,0,1-8.75-3.62,12.39,12.39,0,0,1,0-17.32,12.28,12.28,0,1,1,8.75,20.94Z" transform="translate(-29.65 -163.99)"/><path class="cls-1" d="M373.76,306.49a27.06,27.06,0,0,1-2.71,10.95,29.32,29.32,0,0,1-7.3,9.49,30.4,30.4,0,0,1-3.77,2.83,38.86,38.86,0,0,1-7.76,3.79,40.16,40.16,0,0,1-7.7,1.92,51.86,51.86,0,0,1-7.21.54h-.11a28.72,28.72,0,0,1-6.59-1.14,24.5,24.5,0,0,1-9.27-5.09,26.66,26.66,0,0,1-6.64-9.08,30.47,30.47,0,0,1-2.56-13v-4.05l0-41.27V239.14a24.72,24.72,0,0,0-1.7-9.93,13.79,13.79,0,0,0-4.24-5.68,8.41,8.41,0,0,0-5.6-1.69A9.89,9.89,0,0,0,295,224a14.61,14.61,0,0,0-4.25,5.59,21,21,0,0,0-1.69,8.91v31c0,1.69.08,3.62.25,5.76a30.2,30.2,0,0,0,1.1,6.11,12.77,12.77,0,0,0,2.55,4.84,5.47,5.47,0,0,0,2.29,1.58,1.27,1.27,0,0,1,.83,1.27c0,.73,0,1.46,0,2.19v0a1.3,1.3,0,0,1-1.3,1.3H257a1.3,1.3,0,0,1-1.3-1.3v-1.92a1.28,1.28,0,0,1,1.1-1.27,5.53,5.53,0,0,0,3.48-1.87,13.62,13.62,0,0,0,2.63-4.84,26.57,26.57,0,0,0,1.19-6.11c.17-2.14.25-4.07.25-5.76V198.6a19.14,19.14,0,0,0-.93-6.36,17.07,17.07,0,0,0-2.38-4.58,26.74,26.74,0,0,0-3-3.48c-.94-.9-1.86-1.79-2.76-2.68a1.3,1.3,0,0,1-.38-.91v-3a1.29,1.29,0,0,1,.78-1.19l28.32-12.28a1.31,1.31,0,0,1,.52-.11h3.35a1.3,1.3,0,0,1,1.3,1.3v52.44a1.29,1.29,0,0,0,2.2.92,25.88,25.88,0,0,1,6.31-4.7,26.24,26.24,0,0,1,10.3-3.06A29,29,0,0,1,318.46,212a24.35,24.35,0,0,1,9.28,5.09,26.88,26.88,0,0,1,6.64,9.07,30.67,30.67,0,0,1,2.55,13v68.58a24.65,24.65,0,0,0,1.69,9.92,13.9,13.9,0,0,0,4.24,5.68,7.08,7.08,0,0,0,4.56,1.7c9.4-.84,5.72-10.89,4.82-17a10.89,10.89,0,0,1,.76-6.87,11.6,11.6,0,0,1,3.82-4.41,11.32,11.32,0,0,1,3.18-1.5,13.18,13.18,0,0,1,2.25-.45,10.21,10.21,0,0,1,5.6.85,10.6,10.6,0,0,1,4.32,3.82A11.51,11.51,0,0,1,373.76,306.49Z" transform="translate(-29.65 -163.99)"/></svg>